# xmcd
#
# Track frame offsets: 
#        150
#        11637
#        26022
#        42279
#        61794
#        80478
#        90384
#        105240
#        128259
#        149976
#        168696
#        199701
#
# Disc length: 2944 seconds
#
# Revision: 0
# Processed by: cddbd v1.5.2PL0 Copyright (c) Steve Scherf et al.
# Submitted via: ExactAudioCopyFreeDBPlugin 1.0
#
DISCID=960b7e0c
DTITLE=พงษ์สิทธิ์ คำภีร์ - The Best Of Kampee 1
DYEAR=1900
DGENRE=Thai Country
TTITLE0=ตลอดเวลา
TTITLE1=ถึงเพื่อน
TTITLE2=ไถ่เธอคืนมา
TTITLE3=คิดถึง
TTITLE4=สุดใจฝัน
TTITLE5=ไทรโศก
TTITLE6=ใจเกินร้อย
TTITLE7=อยากขึ้นสวรรค์
TTITLE8=กตัญญู
TTITLE9=วันเวลา
TTITLE10=6 ตุลาคม 2519
TTITLE11=ยอดชาย
EXTD=
EXTT0=
EXTT1=
EXTT2=
EXTT3=
EXTT4=
EXTT5=
EXTT6=
EXTT7=
EXTT8=
EXTT9=
EXTT10=
EXTT11=
PLAYORDER=
